<svg width="100" height="101" viewBox="0 0 100 101" fill="none" xmlns="http://www.w3.org/2000/svg">
<g clip-path="url(#clip0_106_2)">
<path d="M41.7777 91.7858C44.3843 91.7858 46.9486 91.7858 49.5031 91.7858C59.1704 91.7304 67.4236 88.3158 74.1129 81.2876C74.6039 80.7297 74.888 80.0199 74.9177 79.2773C74.9763 72.7216 74.9731 66.1627 74.9437 59.607C74.8702 56.1216 75.8962 52.7015 77.8762 49.8322C79.1795 47.9619 80.2645 45.9222 81.7047 44.179C83.2296 42.3316 83.3827 40.3506 83.1253 38.1447C81.3854 23.2152 70.4962 11.5506 55.7166 8.82014C38.0046 5.56185 20.4098 17.7804 17.2689 35.5544C17.1287 36.3526 17.0017 37.1574 16.8811 37.9622C16.5553 40.243 16.6889 42.312 18.2952 44.2312C19.7517 45.9678 20.8464 48.001 22.1335 49.881C24.0649 52.6814 25.0772 56.0133 25.0301 59.4148C25.0301 65.7293 25.0301 72.0406 25.0301 78.3552C25.0301 81.8741 23.4857 83.4218 19.983 83.4251C16.3239 83.4251 12.6649 83.4414 9.00584 83.4251C3.48305 83.399 0.0194936 79.9224 0.0162354 74.4127C0.0162354 66.5515 0.0162354 58.6903 0.0162354 50.8292C0.0162354 45.5345 2.90633 42.2892 8.2825 41.6539C8.76473 27.2099 14.6818 15.555 26.6103 7.23009C34.225 1.91909 42.804 -0.430134 52.0641 0.0618669C63.0966 0.6451 72.5228 4.94929 80.1505 12.9777C87.7781 21.0061 91.4339 30.5952 91.649 41.592C92.5189 41.7646 93.3237 41.8591 94.0894 42.0905C95.767 42.5851 97.2419 43.6045 98.2975 44.999C99.353 46.3936 99.9337 48.0898 99.9543 49.8387C100.026 58.3102 100.042 66.7818 99.9543 75.2533C99.9087 79.7106 96.5722 83.096 92.1051 83.3599C89.5539 83.513 86.9831 83.4381 84.4253 83.412C84.0641 83.3813 83.701 83.4446 83.3715 83.596C83.042 83.7473 82.7574 83.9814 82.5453 84.2755C75.3771 93.1836 66.1268 98.4816 54.7815 99.7947C50.5196 100.29 46.1861 100.121 41.7777 100.264V91.7858Z" fill="#3A5F0D"/>
<path d="M39.5751 83.3469V75.0644C38.3174 75.0644 37.1574 75.0644 35.991 75.0644C32.8109 75.0448 31.2208 73.4309 31.2208 70.2225C31.2208 62.3223 31.2208 54.4231 31.2208 46.525C31.2208 43.3352 32.85 41.7256 36.0301 41.7256C45.3379 41.7256 54.6457 41.7256 63.9535 41.7256C67.1206 41.7256 68.7302 43.3547 68.7302 46.5576C68.7302 54.46 68.7302 62.3592 68.7302 70.2551C68.7302 73.4482 67.1282 75.0502 63.9242 75.0611C60.3075 75.0611 56.6908 75.0383 53.0741 75.0904C52.4385 75.1088 51.8195 75.2979 51.2821 75.6378C47.7436 77.9447 44.2409 80.3102 40.722 82.6529C40.4092 82.8679 40.0703 83.0504 39.5751 83.3469Z" fill="#FFAE0F"/>
<path d="M69.0235 22.5407L64.6444 26.8612C60.5813 22.9774 55.6939 20.8758 49.9821 20.8725C44.2703 20.8693 39.4579 22.9415 35.4111 26.7896L31.1753 22.3941C39.7381 12.8441 57.9128 11.1237 69.0235 22.5407Z" fill="#FFAE0F"/>
</g>
<defs>
<clipPath id="clip0_106_2">
<rect width="100" height="100.254" fill="white"/>
</clipPath>
</defs>
</svg>
