<?xml version="1.0" standalone="no"?>
<!DOCTYPE svg PUBLIC "-//W3C//DTD SVG 20010904//EN"
 "http://www.w3.org/TR/2001/REC-SVG-20010904/DTD/svg10.dtd">
<svg version="1.0" xmlns="http://www.w3.org/2000/svg"
 width="512.000000pt" height="512.000000pt" viewBox="0 0 512.000000 512.000000"
 preserveAspectRatio="xMidYMid meet">
<metadata>
Created by potrace 1.14, written by Peter Selinger 2001-2017
</metadata>
<g transform="translate(0.000000,512.000000) scale(0.100000,-0.100000)"
fill="#000000" stroke="none">
<path d="M2488 4815 c-2 -2 -43 -5 -93 -9 -49 -3 -105 -8 -123 -10 -18 -3 -52
-8 -75 -11 -23 -3 -49 -8 -57 -10 -8 -2 -30 -7 -49 -10 -66 -11 -227 -57 -341
-96 -63 -22 -119 -42 -125 -43 -94 -26 -532 -250 -543 -278 -2 -4 -8 -8 -13
-8 -11 0 -169 -108 -184 -126 -5 -6 -17 -15 -26 -20 -73 -40 -343 -308 -441
-439 -21 -28 -41 -54 -46 -60 -105 -131 -261 -476 -287 -634 -3 -19 -8 -37
-10 -41 -2 -3 -6 -28 -9 -55 -4 -28 -8 -61 -11 -75 -7 -34 -9 -293 -2 -316 3
-11 8 -44 12 -74 3 -30 12 -80 20 -110 8 -30 15 -63 15 -72 0 -9 5 -29 12 -45
6 -15 13 -37 15 -48 2 -11 7 -31 12 -45 5 -14 24 -65 42 -115 17 -49 44 -115
59 -145 14 -30 28 -59 29 -65 5 -22 97 -196 154 -290 119 -198 257 -376 453
-579 6 -6 46 -42 89 -81 43 -38 85 -77 94 -85 33 -31 228 -168 304 -214 79
-48 243 -130 307 -154 128 -49 294 -95 385 -106 28 -4 75 -10 105 -14 119 -16
324 -5 465 24 199 41 557 179 670 258 17 12 30 19 30 17 0 -11 366 216 385
238 3 3 48 38 100 77 52 40 104 80 115 91 11 10 30 25 41 33 46 32 234 210
349 332 158 166 342 405 440 573 63 108 77 133 121 223 81 168 149 369 170
498 3 21 7 41 9 44 6 9 18 165 18 225 0 69 -9 190 -18 232 -45 212 -122 396
-239 572 -69 104 -175 232 -253 304 -26 24 -64 59 -83 77 -35 33 -167 136
-198 155 -9 6 -48 31 -87 57 -174 113 -391 216 -620 293 -85 28 -123 40 -200
61 -27 8 -56 14 -125 29 -111 25 -112 25 -155 30 -22 3 -53 8 -70 11 -16 4
-43 8 -60 9 -16 2 -59 6 -95 10 -64 6 -377 15 -382 10z"/>
</g>
</svg>
