<svg width="100" height="101" viewBox="0 0 100 101" fill="none" xmlns="http://www.w3.org/2000/svg">
<g clip-path="url(#clip0_113_3)">
<path d="M69.9219 50.5533C78.6037 42.5047 91.15 45.2741 96.4863 53.6022C101.823 61.9303 99.3383 73.6068 89.5329 78.7548C90.9589 78.7548 92.3849 78.8061 93.811 78.7548C98.7223 78.5409 101.363 83.3638 99.287 87.8444C98.8335 88.8227 97.861 89.5557 97.262 90.2716C97.4588 91.6234 97.8153 92.9696 97.8324 94.3187C97.8524 97.6043 95.4652 99.9573 92.1653 99.9829C85.5466 100.04 78.9278 100.07 72.3091 100.074C52.1334 100.114 31.9577 100.146 11.782 100.171C6.18336 100.171 1.6571 96.6888 0.373657 91.3896C0.133736 90.3833 0.0131234 89.3523 0.0142993 88.3179C-0.00281329 62.8202 -0.00281329 37.3225 0.0142993 11.8248C0.0142993 4.99689 4.9912 0.0228555 11.8134 0.0142993C27.1481 -0.00281329 42.4848 -0.00281329 57.8233 0.0142993C65.0648 0.0142993 69.919 4.88566 69.9247 12.1728C69.94 24.5109 69.94 36.849 69.9247 49.1872L69.9219 50.5533ZM66.8103 78.7234C66.8103 76.1394 66.8103 73.6895 66.8103 71.2396C66.7592 70.9602 66.6536 70.6937 66.4994 70.4552C64.2377 65.4954 64.2491 60.5385 66.468 55.5616C66.6946 55.0482 66.8149 54.4942 66.8217 53.9331C66.8473 47.4103 66.8388 40.8848 66.8388 34.3592C66.8388 26.8011 66.8644 19.2431 66.8388 11.6822C66.8131 6.80512 63.2623 3.23431 58.4365 3.1573C56.1976 3.12308 53.953 3.17441 51.7141 3.13448C51.0696 3.13448 50.7672 3.36551 50.5334 3.93592C49.9173 5.41331 49.2442 6.86501 48.5997 8.33099C47.5843 10.6298 45.8189 11.7706 43.3204 11.7706C37.7703 11.7706 32.2201 11.7706 26.6699 11.7706C24.1715 11.7706 22.3918 10.644 21.3736 8.3481C20.7205 6.88498 20.0559 5.42757 19.457 3.94448C19.2032 3.30846 18.8352 3.08885 18.1736 3.12878C17.0726 3.17726 15.9689 3.12878 14.8651 3.14589C13.1938 3.17726 11.4911 3.03181 9.86257 3.31987C5.77267 4.04715 3.15445 7.49818 3.1516 11.9788C3.14019 34.5845 3.14019 57.1892 3.1516 79.793C3.1516 80.1352 3.19437 80.4775 3.21719 80.8112C3.34527 80.8468 3.4759 80.8726 3.60793 80.8882C16.1324 80.8882 28.6559 80.8834 41.1785 80.8739C41.5495 80.845 41.8982 80.6853 42.1625 80.4233C42.7299 79.857 43.4072 79.413 44.1529 79.1187C44.8985 78.8244 45.6965 78.686 46.4977 78.712C52.2247 78.7349 57.9517 78.712 63.6815 78.712L66.8103 78.7234ZM90.7678 61.5196C90.6195 60.51 90.1689 60.0423 89.3418 59.9282C88.3721 59.797 87.3909 59.6116 86.3927 59.5118C86.02 59.4928 85.6605 59.3671 85.3571 59.1497C85.0538 58.9322 84.8192 58.6322 84.6815 58.2854C84.2508 57.347 83.8002 56.4172 83.301 55.516C82.6365 54.3181 81.3873 54.3209 80.7342 55.516C80.2719 56.3174 79.8604 57.1471 79.5021 58.0002C79.3516 58.4583 79.0582 58.8562 78.665 59.1354C78.2718 59.4146 77.7995 59.5605 77.3174 59.5517C76.4635 59.5806 75.6166 59.7157 74.7961 59.9538C74.2827 60.1135 73.6182 60.5014 73.4727 60.9378C73.3273 61.3742 73.5783 62.2355 73.9462 62.495C76.4874 64.2919 77.2204 66.5707 76.2279 69.514C76.1768 69.7784 76.1917 70.0513 76.2713 70.3085C76.3509 70.5657 76.4927 70.7993 76.6842 70.9886C77.0835 71.2595 77.845 71.2738 78.3384 71.0798C79.2967 70.7262 80.1438 70.0673 81.1049 69.7222C81.7136 69.5226 82.3701 69.5226 82.9788 69.7222C83.9399 70.0702 84.787 70.7319 85.7453 71.0855C86.2358 71.2652 87.0002 71.251 87.3966 70.9743C87.7418 70.7319 87.8958 69.9903 87.8672 69.4855C87.7748 68.5257 87.6195 67.5729 87.4024 66.6334C87.2426 65.7978 87.4024 65.1076 88.0811 64.5229C88.8042 63.8892 89.4934 63.2181 90.1461 62.5122C90.387 62.199 90.5963 61.8627 90.7707 61.5082L90.7678 61.5196ZM57.8832 90.9361C54.0414 90.9361 50.2025 90.9361 46.3636 90.9361C44.7351 90.9361 43.7967 91.8858 43.6798 93.503C43.5172 95.7846 44.5354 96.8713 46.8627 96.8741H66.1685C67.197 96.9218 68.2274 96.9094 69.2545 96.8371C71.1882 96.6146 71.8784 95.6506 71.7387 93.5857C71.6132 91.7176 70.7889 90.9389 68.8666 90.9304C65.2074 90.9247 61.5453 90.9332 57.8861 90.9361H57.8832ZM57.6665 87.776C61.4369 87.776 65.2074 87.776 68.9778 87.776C70.0759 87.776 70.9258 87.3738 71.4392 86.3984C72.6171 84.1595 71.2481 81.818 68.7411 81.8123C61.3789 81.7951 54.0158 81.7951 46.6517 81.8123C44.6267 81.8123 43.6484 82.8504 43.6712 84.8697C43.6941 86.8205 44.6609 87.7646 46.6745 87.7703C50.3366 87.7798 54.0015 87.7817 57.6693 87.776H57.6665ZM74.6392 96.8542C80.4318 96.8542 86.4041 96.8713 92.3736 96.8542C92.8454 96.8651 93.3083 96.7241 93.694 96.4519C94.0797 96.1797 94.3676 95.7908 94.5155 95.3426C95.2399 93.3261 94.5554 90.8676 91.6634 90.919C86.2216 91.016 80.7769 90.9475 75.3352 90.9503C75.0271 90.9503 74.7162 90.9789 74.6392 90.9817V96.8542ZM38.0555 90.5796C38.0715 89.7533 37.7588 88.9544 37.186 88.3586C36.6132 87.7628 35.8272 87.4188 35.0009 87.4024C34.1755 87.4072 33.3842 87.7322 32.7936 88.3089C32.2031 88.8856 31.8594 89.669 31.8351 90.494C31.8354 91.3196 32.1572 92.1127 32.7321 92.7052C33.3071 93.2978 34.0901 93.6432 34.9153 93.6684C35.3249 93.6725 35.7313 93.5958 36.1111 93.4425C36.491 93.2892 36.8368 93.0625 37.1288 92.7752C37.4208 92.488 37.6533 92.1459 37.8128 91.7687C37.9723 91.3914 38.0557 90.9863 38.0583 90.5767L38.0555 90.5796ZM74.5622 78.7291L69.9989 75.5633V78.7291H74.5622Z" fill="#3A5F0D"/>
<path d="M54.2894 37.7275C54.2996 40.3852 53.7853 43.0188 52.7761 45.4775C51.767 47.9362 50.2827 50.1716 48.4083 52.0558C46.5339 53.94 44.3062 55.4359 41.8529 56.4579C39.3995 57.4799 36.7686 58.0079 34.1109 58.0116C28.7625 58.0026 23.6348 55.8781 19.8474 52.1018C16.0599 48.3255 13.9201 43.2042 13.8953 37.8559C13.8821 35.1983 14.3929 32.5642 15.3984 30.1042C16.4039 27.6442 17.8843 25.4064 19.7552 23.5189C21.626 21.6314 23.8505 20.1311 26.3015 19.1038C28.7526 18.0765 31.382 17.5423 34.0396 17.5319C36.697 17.5221 39.3302 18.0374 41.7879 19.0482C44.2456 20.059 46.4794 21.5454 48.361 23.422C50.2426 25.2985 51.735 27.5283 52.7523 29.9833C53.7697 32.4383 54.2921 35.0701 54.2894 37.7275ZM34.0852 27.5883C33.4378 28.1958 32.8531 28.5524 32.5422 29.0743C31.9034 30.1381 31.4014 31.2847 30.8681 32.4084C30.7224 32.7532 30.484 33.0508 30.1794 33.2683C29.8748 33.4858 29.5159 33.6146 29.1425 33.6405C27.9044 33.7467 26.6757 33.9431 25.4662 34.228C24.8958 34.3792 24.1799 34.884 24.0402 35.3689C23.9004 35.8537 24.2113 36.678 24.5878 37.1429C25.3578 38.0298 26.1909 38.86 27.0805 39.627C27.7365 40.2317 28.0245 40.9019 27.8306 41.8146C27.5853 42.9554 27.4541 44.1333 27.2259 45.2827C27.0719 46.0499 27.1176 46.8457 27.8192 47.1651C28.4463 47.422 29.1449 47.4442 29.7871 47.2278C30.9287 46.7433 32.0343 46.1781 33.0955 45.5366C33.3989 45.3504 33.7479 45.2519 34.1038 45.2519C34.4597 45.2519 34.8086 45.3504 35.112 45.5366C36.146 46.1597 37.2219 46.7105 38.332 47.1851C38.9662 47.4247 39.6641 47.4358 40.3056 47.2164C41.0957 46.8999 41.1071 46.0471 40.9673 45.2628C40.7677 44.1419 40.588 43.0182 40.3712 41.9001C40.275 41.4851 40.297 41.0513 40.4346 40.6481C40.5722 40.2448 40.82 39.8881 41.1498 39.6185C42.0483 38.8113 42.9181 37.9671 43.7481 37.0858C44.8062 35.9592 44.3185 34.5047 42.8098 34.2137C41.5891 33.9799 40.3598 33.7831 39.1249 33.6433C38.7162 33.6165 38.3237 33.4738 37.9933 33.2318C37.663 32.9899 37.4084 32.6587 37.2596 32.2772C36.7737 31.1722 36.2281 30.0944 35.6253 29.0486C35.3202 28.5324 34.7326 28.1816 34.0852 27.5883Z" fill="#FFAE0F"/>
<path d="M34.0683 75.5916C30.2636 75.5916 26.4618 75.5916 22.66 75.5916C20.5466 75.5916 19.6282 74.6619 19.6168 72.5199C19.6168 70.8087 19.5968 69.0974 19.6168 67.3862C19.6396 65.578 20.5836 64.5341 22.3519 64.5341C30.1724 64.5056 37.9919 64.5056 45.8104 64.5341C47.5872 64.5341 48.5655 65.5523 48.6111 67.3491C48.6568 69.1459 48.6596 70.9855 48.6111 72.7995C48.5627 74.6134 47.5473 75.5831 45.6906 75.5888C41.8175 75.6002 37.9415 75.5916 34.0683 75.5916Z" fill="#FFAE0F"/>
</g>
<defs>
<clipPath id="clip0_113_3">
<rect width="100" height="100.165" fill="white"/>
</clipPath>
</defs>
</svg>
