<svg width="100" height="100" viewBox="0 0 100 100" fill="none" xmlns="http://www.w3.org/2000/svg">
<g clip-path="url(#clip0_108_47)">
<path d="M100 78.7192C99.9276 78.819 99.8672 78.927 99.82 79.0408C99.2486 81.168 97.8996 82.5506 95.8435 83.3625C84.848 87.686 73.8604 92.0328 62.8807 96.4029C60.2844 97.4405 57.7378 98.6416 54.9224 98.9295C49.276 99.5054 43.773 99.1656 38.591 96.4885C33.8944 94.0604 29.1272 91.7543 24.3758 89.4274C23.7835 89.1395 23.6086 88.8075 23.6086 88.1719C23.6295 77.0105 23.6295 65.8474 23.6086 54.6826C23.6086 53.9692 23.8278 53.6657 24.5036 53.4841C26.3849 52.9861 28.227 52.3298 30.124 51.9069C32.3761 51.4242 34.7271 51.7399 36.7698 52.7993C45.0637 56.8979 53.3455 61.0233 61.6152 65.1756C64.3653 66.5608 65.3699 69.985 63.9818 72.7969C63.6602 73.4722 63.2078 74.0777 62.6503 74.5787C62.0929 75.0797 61.4414 75.4664 60.7333 75.7166C60.0252 75.9668 59.2744 76.0755 58.524 76.0365C57.7735 75.9976 57.0382 75.8117 56.3601 75.4896C52.8324 73.8397 49.3569 72.0732 45.8735 70.3326C44.3653 69.5777 42.8076 69.1056 41.0985 69.1782C39.8583 69.207 38.6389 69.5013 37.5236 70.0412C36.4082 70.5811 35.4231 71.3538 34.6354 72.3066C33.5108 73.6192 33.6126 75.2898 34.8389 76.3845C36.0653 77.4792 37.7456 77.3884 38.9589 76.1822C40.3679 74.784 41.4586 74.6076 43.2564 75.5077C46.5075 77.1368 49.7561 78.7702 53.002 80.4079C55.6817 81.7568 58.4032 82.2082 61.3829 81.321C71.2825 78.3793 81.2473 75.6556 91.1077 72.5972C94.9668 71.4013 98.5571 72.4182 100.003 76.7762L100 78.7192Z" fill="#FFAE0F"/>
<path d="M61.7431 -0.000134674C76.214 0.0776872 88.1358 12.1608 88.0392 26.6513C87.9427 41.1417 76.1123 52.8098 61.61 52.7475C58.1361 52.7398 54.698 52.0486 51.494 50.7139C48.2899 49.3791 45.3833 47.4272 42.9416 44.9705C40.4998 42.5138 38.5713 39.601 37.2671 36.3999C35.9629 33.1988 35.3088 29.7728 35.3426 26.3192C35.4495 11.8625 47.4234 -0.0753624 61.7431 -0.000134674ZM52.9159 32.6098C52.9472 34.2193 53.4344 35.7873 54.3214 37.134C55.2085 38.4807 56.4595 39.5515 57.9309 40.2234C58.5467 40.5113 58.839 40.8096 58.779 41.5204C58.7137 42.2986 58.7581 43.0768 58.7659 43.8551C58.7894 45.6709 59.9844 46.9394 61.6778 46.9394C63.3713 46.9394 64.5767 45.6761 64.6159 43.8551C64.6341 43.0768 64.6628 42.2986 64.6159 41.5204C64.5689 40.846 64.8063 40.5243 65.4404 40.2234C67.3188 39.3587 68.8245 37.8551 69.6857 35.9838C70.547 34.1124 70.707 31.9967 70.1371 30.0183C69.2995 27.0092 66.4137 23.8108 61.7405 23.6421C59.8696 23.5721 58.7137 22.288 58.7868 20.6019C58.8281 19.8679 59.1467 19.1765 59.679 18.6662C60.2112 18.1558 60.9177 17.8642 61.657 17.8496C63.2747 17.8263 64.4645 19.0143 64.6367 20.8172C64.6515 21.0747 64.6917 21.3302 64.7568 21.5799C64.9621 22.2694 65.4187 22.858 66.0373 23.2307C66.6558 23.6034 67.392 23.7335 68.1018 23.5954C69.6074 23.336 70.612 21.9612 70.4502 20.2932C70.1475 16.8535 68.4384 14.3424 65.2891 12.8638C65.0634 12.7899 64.8714 12.6388 64.7472 12.4374C64.623 12.236 64.5746 11.9974 64.6107 11.7639C64.6472 10.8612 64.6576 9.94809 64.6107 9.04795C64.5922 8.2771 64.2665 7.5451 63.7053 7.01292C63.1441 6.48074 62.3932 6.19195 61.6178 6.21005C60.0184 6.24637 58.8103 7.50708 58.7737 9.18025C58.7285 9.92335 58.7328 10.6686 58.7868 11.4111C58.8833 12.2516 58.5519 12.6355 57.7953 13.0013C56.1547 13.7845 54.8047 15.0625 53.9375 16.6531C53.0703 18.2438 52.7301 20.0659 52.9655 21.86C53.2 23.6523 53.9888 25.3279 55.2228 26.6551C56.4568 27.9823 58.0751 28.8956 59.854 29.2687C60.6759 29.4451 61.5396 29.4295 62.3615 29.5981C62.9866 29.7371 63.5474 30.079 63.9555 30.5698C64.3637 31.0605 64.596 31.6724 64.6159 32.3089C64.62 32.9438 64.4196 33.5633 64.044 34.0768C63.6684 34.5903 63.1373 34.9707 62.5285 35.1624C60.6602 35.7305 58.9642 34.4723 58.7607 32.3686C58.5911 30.615 57.3021 29.3984 55.7026 29.4814C54.0588 29.5696 52.9003 30.8666 52.9159 32.6098Z" fill="#3A5F0D"/>
<path d="M5.2873e-05 70.1589C5.2873e-05 63.5596 5.2873e-05 56.9595 5.2873e-05 50.3585C5.2873e-05 48.0861 1.13247 46.9343 3.39209 46.9317C5.4795 46.9317 7.56691 46.8357 9.63606 47.0095C14.4058 47.409 17.7248 51.0589 17.7535 55.8293C17.7822 62.9474 17.7535 70.063 17.7535 77.1811C17.7535 81.4855 17.7535 85.7881 17.7535 90.0891C17.7535 92.3823 16.6419 93.5107 14.3614 93.5133C10.6858 93.5133 7.00853 93.5133 3.32947 93.5133C1.10637 93.5133 -0.0208282 92.3797 -0.0234375 90.1617C-0.00952143 83.4915 -0.00168664 76.8239 5.2873e-05 70.1589Z" fill="#3A5F0D"/>
</g>
<defs>
<clipPath id="clip0_108_47">
<rect width="100" height="99.1736" fill="white"/>
</clipPath>
</defs>
</svg>
