<svg width="100" height="99" viewBox="0 0 100 99" fill="none" xmlns="http://www.w3.org/2000/svg">
<g clip-path="url(#clip0_108_41)">
<path d="M100.011 74.2761C99.5582 74.2542 99.1055 74.2068 98.6528 74.2068H24.8037V57.6977H98.7331C99.153 57.6977 99.5764 57.6977 99.9999 57.6758L100.011 74.2761Z" fill="#FFAE0F"/>
<path d="M100.011 98.8972H69.7383H24.771V82.5013C25.1142 82.4831 25.3989 82.4502 25.6837 82.4502H99.4306C99.6241 82.4502 99.8212 82.4721 100.015 82.4794L100.011 98.8972Z" fill="#FFAE0F"/>
<path d="M83.4397 43.7697L78.2519 49.4103C78.1424 49.5308 78.0219 49.6366 77.8321 49.8155L67.2191 40.0605C64.7365 41.1558 62.473 42.4408 60.0671 43.1966C46.0771 47.5776 31.5906 36.7054 31.7585 22.0582C31.879 11.0327 39.4691 2.16485 50.396 0.277364C60.8447 -1.52615 71.7279 5.19504 74.7982 15.348C76.6638 21.5106 76.1089 27.4286 72.9253 33.0509C72.5931 33.635 72.7136 33.9271 73.1699 34.3433C76.3462 37.2348 79.4968 40.1554 82.6621 43.0651C82.8921 43.2988 83.1367 43.5105 83.4397 43.7697ZM53.784 8.17412C50.1156 8.17393 46.5953 9.62138 43.9881 12.202C41.3808 14.7826 39.8972 18.2878 39.8597 21.956C39.8414 23.7894 40.1858 25.6083 40.8729 27.3081C41.5601 29.008 42.5766 30.5552 43.8638 31.8608C45.1511 33.1663 46.6838 34.2046 48.3737 34.9157C50.0637 35.6268 51.8775 35.9968 53.711 36.0044C55.5444 36.0193 57.3627 35.6718 59.0614 34.9819C60.7601 34.2919 62.3058 33.2731 63.6095 31.9839C64.9133 30.6947 65.9494 29.1607 66.6585 27.4698C67.3675 25.779 67.7354 23.9647 67.7411 22.1313C67.7436 20.2984 67.3841 18.4831 66.6833 16.7895C65.9826 15.0958 64.9544 13.5572 63.6577 12.2619C62.361 10.9665 60.8213 9.9399 59.1269 9.24094C57.4326 8.54197 55.6169 8.18439 53.784 8.18872V8.17412Z" fill="#3A5F0D"/>
<path d="M16.4397 90.6321C16.4495 92.8027 15.6014 94.8892 14.0799 96.4373C12.5585 97.9854 10.487 98.8697 8.31662 98.8976C6.13189 98.9064 4.03219 98.0515 2.47508 96.519C0.917976 94.9865 0.0296543 92.9007 0.00366325 90.7161C0.00252391 88.5473 0.856063 86.4655 2.37931 84.9218C3.90256 83.378 5.9728 82.4967 8.14137 82.4689C9.22338 82.4558 10.2973 82.6571 11.3011 83.0611C12.305 83.465 13.219 84.0637 13.9904 84.8225C14.7618 85.5814 15.3753 86.4854 15.7957 87.4825C16.2161 88.4796 16.435 89.55 16.4397 90.6321Z" fill="#3A5F0D"/>
<path d="M16.4397 65.9559C16.4359 68.1252 15.5765 70.2054 14.0481 71.7448C12.5197 73.2842 10.4456 74.1584 8.27643 74.1776C6.09075 74.1738 3.99499 73.3071 2.44504 71.7661C0.895089 70.225 0.0163581 68.1343 0 65.9486C0 61.4472 3.83338 57.643 8.28374 57.7124C10.4528 57.742 12.5233 58.6228 14.0489 60.1649C15.5746 61.7069 16.4332 63.7867 16.4397 65.9559Z" fill="#3A5F0D"/>
</g>
<defs>
<clipPath id="clip0_108_41">
<rect width="100" height="98.9047" fill="white"/>
</clipPath>
</defs>
</svg>
