<svg width="409" height="746" viewBox="0 0 409 746" fill="none" xmlns="http://www.w3.org/2000/svg">
<path d="M187.39 116.831L182.347 164.453C182.347 164.453 215.355 212.655 206.782 236.592C206.782 236.592 242.614 230.084 245.867 208.493C249.12 186.902 235.553 156.835 235.553 156.835L187.39 116.831Z" fill="#262642"/>
<path d="M317.305 413.106L345.295 308.075C345.295 308.075 407.957 465.848 408.714 480.982C409.47 496.116 359.441 625.714 359.441 625.714L339.117 561.521C339.117 561.521 359.29 491.273 358.08 486.859C356.869 482.445 331.93 431.494 331.93 431.494L317.305 413.106Z" fill="#3A5F0D"/>
<path d="M159.375 678.809L155.265 745.248H366.376L352.053 644.43L264.048 588.459L159.375 678.809Z" fill="black"/>
<path d="M345.219 308.251C345.219 308.251 305.554 282.271 299.653 280.707C268.309 272.283 187.34 280.304 187.34 280.304C187.34 280.304 135.167 310.9 125.661 322.805C116.154 334.711 -3.92594 511.653 0.865165 528.452C5.65627 545.251 120.87 662.363 120.87 662.363L154.508 640.545C153.575 662.288 152.894 678.986 152.894 678.986L282.96 675.555L299.805 647.961C299.805 647.961 310.446 674.37 313.472 675.555C316.498 676.741 364.989 664.407 364.989 664.407C364.989 664.407 346.455 535.136 346.455 524.315C346.455 520.482 352.456 470.968 352.154 415.653C351.775 365.155 345.219 308.251 345.219 308.251ZM75.2281 512.864C76.4132 506.861 146.388 449.805 146.388 449.805C146.388 449.805 159.627 526.081 158.669 544.091C158.19 553.348 156.652 588.711 155.29 620.896C131.662 591.082 74.2194 517.631 75.2281 512.864Z" fill="#3A5F0D"/>
<path d="M155.794 608.26L182.902 644.43L165.175 633.559L155.265 620.165L155.794 608.26Z" fill="#20252D"/>
<path d="M211.094 269.181L201.511 273.317L187.39 280.304L199.242 366.619L232.553 382.005L221.609 412.753L291.281 496.52L331.93 405.917L312.009 376.229L331.93 354.638L294.459 269.836L211.094 269.181Z" fill="#183700"/>
<path d="M299.3 388.463C300.788 350.779 300.359 314.104 294.459 298.919C280.287 262.345 228.039 311.052 228.039 311.052C241.426 337.027 253.412 363.702 263.947 390.96L299.3 388.463Z" fill="#C9C9C9"/>
<path d="M283.565 327.018L268.133 329.061C267.629 340.487 265.788 366.391 263.947 390.959C276.959 424.708 289.163 463.703 291.281 496.519C291.281 496.519 297.207 441.482 299.3 388.462C292.088 355.823 283.565 327.018 283.565 327.018Z" fill="#FF9900"/>
<path d="M253.18 304.216L268.133 329.061L283.565 327.018L286.541 298.919H271.84L253.18 304.216Z" fill="#CC940F"/>
<path d="M271.915 298.919C253.281 308.396 238.002 323.362 228.14 341.799C228.14 341.799 196.645 286.308 201.612 273.418C211.421 248.195 232.704 251.449 258.803 248.472C284.902 245.496 293.4 267.264 299.653 280.708C305.907 294.152 309.891 324.546 309.891 324.546C309.891 324.546 288.684 300.332 271.915 298.919Z" fill="white"/>
<path d="M294.459 230.437C292.794 231.547 271.008 251.423 277.337 267.44C283.666 283.457 271.915 298.919 271.915 298.919C271.915 298.919 219.491 284.567 218.961 261.084C218.961 261.084 229.476 239.14 221.735 216.01C213.993 192.88 294.459 230.437 294.459 230.437Z" fill="#E09E63"/>
<path d="M197.628 41.2364C197.628 41.2364 167.368 44.0363 160.434 83.1831C153.5 122.33 183.658 166.774 183.658 166.774L290.802 174.341L339.369 144.88C339.369 144.88 378.127 99.2252 348.018 51.3511L368.595 49.0305C368.595 49.0305 318.893 -3.93877 259.181 0.500558C196.947 5.21734 197.628 41.2364 197.628 41.2364Z" fill="black"/>
<path d="M339.47 144.905C344.575 138.456 348.814 131.367 352.078 123.818C347.766 111.433 338.512 108.684 338.512 108.684L327.744 148.108L239.689 135.849C239.689 135.849 214.472 149.848 205.823 128.812C192.988 97.434 189.962 87.4203 189.962 87.4203C178.186 96.526 172.311 121.8 172.311 121.8C165.578 105.506 164.544 69.0576 164.544 69.0576C162.664 73.6371 161.286 78.407 160.434 83.2836C153.399 122.33 183.658 166.773 183.658 166.773L290.802 174.34L339.47 144.905Z" fill="black"/>
<path d="M338.486 108.633C341.487 138.573 335.662 248.598 284.7 252.407C216.616 257.452 206.529 194.721 206.529 194.721C180.002 195.301 159.45 153.581 177.178 146.494C194.905 139.406 203.831 168.236 203.831 168.236C203.831 168.236 199.116 135.168 208.547 123.944C217.978 112.719 218.003 94.4072 218.003 94.4072C218.003 94.4072 270.579 120.993 313.093 110.348C305.103 105.495 297.407 100.172 290.046 94.4072C290.046 94.4072 326.66 100.89 338.486 108.633Z" fill="#FFBD7B"/>
<path d="M253.18 149.975C253.18 154.767 250.154 158.677 246.422 158.677C242.69 158.677 239.664 154.767 239.664 149.975C239.664 145.182 242.69 141.272 246.422 141.272C250.154 141.272 253.18 145.182 253.18 149.975Z" fill="#1B152B"/>
<path d="M318.49 148.259C318.288 153.077 315.111 156.835 311.404 156.684C307.697 156.533 304.823 152.522 304.999 147.73C305.176 142.937 308.378 139.154 312.11 139.305C315.842 139.457 318.692 143.467 318.49 148.259Z" fill="#1B152B"/>
<path d="M182.271 156.835C182.271 156.835 190.492 157.44 195.686 167.404C200.881 177.367 194.451 181.403 190.794 179.183C187.138 176.963 185.751 170.229 190.794 169.321C190.694 169.321 188.172 159.08 182.271 156.835Z" fill="#E09E63"/>
<path d="M244.984 227.183C224.879 216.723 207.714 201.391 195.056 182.588L190.013 175.021L192.106 173.634L197.149 181.201C209.58 199.638 226.423 214.673 246.144 224.938L244.984 227.183Z" fill="#464675"/>
<path d="M251.414 226.301C251.414 227.638 250.883 228.922 249.937 229.868C248.992 230.814 247.709 231.345 246.371 231.345C245.034 231.345 243.751 230.814 242.805 229.868C241.859 228.922 241.328 227.638 241.328 226.301C241.328 224.963 241.859 223.679 242.805 222.733C243.751 221.787 245.034 221.256 246.371 221.256C247.709 221.256 248.992 221.787 249.937 222.733C250.883 223.679 251.414 224.963 251.414 226.301Z" fill="#464675"/>
<path d="M191.853 180.772C195.864 180.772 199.116 177.52 199.116 173.508C199.116 169.496 195.864 166.243 191.853 166.243C187.843 166.243 184.591 169.496 184.591 173.508C184.591 177.52 187.843 180.772 191.853 180.772Z" fill="#262642"/>
<path d="M197.199 173.508C197.199 175.434 196.434 177.282 195.072 178.644C193.71 180.007 191.863 180.772 189.937 180.772C188.011 180.772 186.164 180.007 184.802 178.644C183.44 177.282 182.675 175.434 182.675 173.508C182.675 171.581 183.44 169.733 184.802 168.371C186.164 167.009 188.011 166.243 189.937 166.243C191.863 166.243 193.71 167.009 195.072 168.371C196.434 169.733 197.199 171.581 197.199 173.508Z" fill="#464675"/>
<path d="M194.602 173.508C194.602 174.12 194.481 174.725 194.247 175.29C194.012 175.855 193.668 176.368 193.234 176.799C192.801 177.23 192.286 177.571 191.72 177.803C191.155 178.035 190.549 178.153 189.937 178.149C188.707 178.149 187.526 177.66 186.656 176.79C185.786 175.92 185.297 174.739 185.297 173.508C185.294 172.897 185.412 172.29 185.643 171.724C185.875 171.158 186.216 170.644 186.647 170.21C187.079 169.776 187.591 169.432 188.156 169.197C188.72 168.963 189.326 168.842 189.937 168.842C191.174 168.842 192.361 169.333 193.236 170.209C194.111 171.084 194.602 172.271 194.602 173.508Z" fill="#262642"/>
<path d="M295.669 166.773C295.669 166.773 305.024 188.466 286.516 189.626C286.516 189.626 303.31 190.963 302.175 182.513C301.178 176.855 298.958 171.483 295.669 166.773Z" fill="#E09E63"/>
<path d="M303.083 201.153L298.619 205.34L268.536 205.895L257.265 201.254C254.34 200.825 252.6 200.472 252.6 200.472C252.6 200.472 257.643 236.819 279.707 236.592C301.771 236.365 305.579 200.472 305.579 200.472L303.083 201.153Z" fill="#351E1E"/>
<path d="M229.476 138.523C229.476 138.523 245.867 114.788 262.257 127.853V133.075C256.764 131.235 250.904 130.769 245.189 131.719C239.475 132.669 234.079 135.005 229.476 138.523Z" fill="#303054"/>
<path d="M332.233 135.749C332.233 135.749 317.305 112.896 302.175 125.458V130.502C307.214 128.724 312.626 128.272 317.89 129.191C323.154 130.11 328.094 132.368 332.233 135.749Z" fill="#303054"/>
<path d="M264.048 213.992C261.35 213.992 258.727 213.992 256.13 214.295C259.786 224.535 266.847 236.718 279.707 236.592C289.794 236.592 296.022 229.025 299.88 220.929C288.538 216.182 276.341 213.821 264.048 213.992Z" fill="#A83F3F"/>
<path d="M256.13 176.736C256.13 180.066 251.515 182.765 245.791 182.765C240.067 182.765 235.478 180.066 235.478 176.736C235.478 173.407 240.092 170.683 245.791 170.683C251.49 170.683 256.13 173.407 256.13 176.736Z" fill="#FFCFA4"/>
<path d="M329.913 176.736C329.913 180.066 325.273 182.765 319.574 182.765C313.875 182.765 309.235 180.066 309.235 176.736C309.235 173.407 313.875 170.683 319.574 170.683C325.273 170.683 329.913 173.407 329.913 176.736Z" fill="#FFCFA4"/>
<path d="M146.338 449.907L170.924 425.97L154.029 498.462L146.338 449.907Z" fill="#20252D"/>
<path d="M165.175 633.559C165.175 633.559 208.042 658.631 210.816 666.349C213.792 674.95 218.785 714.274 214.699 716.266C209.934 718.663 206.58 713.088 206.58 713.088C206.58 713.088 206.126 722.9 202.671 722.9C199.217 722.9 197.048 717.25 197.048 717.25C197.048 717.25 195.812 727.339 192.005 727.339C188.197 727.339 187.163 720.529 187.163 720.529C187.163 720.529 186.482 730.291 181.061 730.114C176.421 729.937 172.21 701.763 168.327 697.45C164.443 693.136 138.899 681.836 134.587 676.237C130.275 670.637 127.022 658.076 127.022 658.076L165.175 633.559Z" fill="#FFBD7B"/>
<path d="M257.265 201.254L258.198 206.122C276.681 213.21 301.292 207.005 301.292 207.005L303.083 201.153C287.322 204.962 266.418 202.616 257.265 201.254Z" fill="#EEFDFF"/>
<path d="M291.281 496.52L299.704 647.86L291.281 661.658C293.349 658.505 291.281 496.52 291.281 496.52Z" fill="#20252D"/>
<path d="M206.58 713.189C206.58 713.189 204.058 680.626 202.974 677.877C201.89 675.127 200.2 671.192 200.2 671.192C202.218 673.897 203.761 676.925 204.764 680.147C205.369 683.728 206.58 713.189 206.58 713.189Z" fill="#EFAC73"/>
<path d="M197.048 717.351C197.048 717.351 196.821 690.311 195.308 686.275C193.771 683.106 191.659 680.249 189.08 677.851C189.08 677.851 197.048 687.057 197.048 717.351Z" fill="#EFAC73"/>
<path d="M187.088 720.756C187.088 720.756 185.045 694.776 183.658 692.229C182.271 689.681 176.093 686.932 176.093 686.932C178.372 689.187 180.401 691.682 182.145 694.373C183.154 696.517 187.088 720.756 187.088 720.756Z" fill="#EFAC73"/>
</svg>
