<svg width="100" height="100" viewBox="0 0 100 100" fill="none" xmlns="http://www.w3.org/2000/svg">
<g clip-path="url(#clip0_107_15)">
<path d="M0 20.4185C0.891949 20.588 1.80997 20.6793 2.66802 20.9401C6.40273 22.1163 8.74214 25.4233 8.75258 29.5466C8.77083 36.8647 8.81256 44.1855 8.73432 51.5011C8.6978 54.8028 9.80101 57.4995 12.1639 59.779C15.317 62.833 18.3841 65.9757 21.4929 69.0792C21.7537 69.34 22.0145 69.5669 22.1944 69.7521L26.3229 65.6314C26.1586 65.4567 25.9265 65.1932 25.6787 64.9481C22.437 61.7037 19.1717 58.4828 15.956 55.2123C13.5096 52.719 14.6024 48.7183 17.9407 47.8759C19.6333 47.4482 21.0703 47.9776 22.2831 49.2112C28.0399 55.048 33.8002 60.8796 39.5639 66.7059C41.8747 69.0532 44.1932 71.3691 46.4831 73.7241C46.7808 74.0034 46.974 74.3761 47.0308 74.7804C47.0699 78.0978 47.0542 81.4152 47.049 84.7327C47.0363 84.8759 47.0128 85.0181 46.9786 85.1578C46.6369 85.1734 46.3214 85.2021 46.0032 85.2021C36.8611 85.2021 27.72 85.2082 18.5797 85.2204C18.2774 85.2274 17.977 85.1717 17.6973 85.0567C17.4177 84.9418 17.1649 84.7702 16.9549 84.5527C11.4901 79.441 6.01327 74.3423 0.524218 69.2566C0.357763 69.1093 0.183652 68.9708 0.00261059 68.8419L0 20.4185Z" fill="#FFAE0F"/>
<path d="M17.5756 99.8774V91.1431H47.062V99.8774H17.5756Z" fill="#3A5F0D"/>
<path d="M52.9197 99.8776V91.1406H82.4062V99.8776H52.9197Z" fill="#3A5F0D"/>
<path d="M99.9792 20.4731V21.6728C99.9792 36.9977 99.9861 52.3234 100 67.6499C100.015 68.0137 99.9457 68.376 99.7968 68.7083C99.6478 69.0405 99.4237 69.3336 99.142 69.5642C93.7146 74.5743 88.3186 79.6208 82.8939 84.6309C82.5482 84.9489 82.1053 85.141 81.6368 85.176C72.3279 85.2073 63.0198 85.2142 53.7126 85.1968C53.4909 85.1968 53.2718 85.1733 52.9849 85.1577C52.9641 84.8969 52.9275 84.683 52.9275 84.464C52.9275 81.3082 52.9093 78.1525 52.9458 74.9968C52.9594 74.5589 53.1265 74.1398 53.4178 73.8127C61.541 65.5557 69.6807 57.3126 77.8369 49.0833C78.4634 48.4095 79.2902 47.9554 80.1949 47.7881C81.0996 47.6209 82.0341 47.7495 82.86 48.1549C83.6585 48.5345 84.3223 49.1485 84.7631 49.9149C85.2039 50.6814 85.4007 51.564 85.3272 52.4451C85.2411 53.6396 84.6674 54.5915 83.8302 55.4235C80.6692 58.5688 77.5144 61.7193 74.3656 64.875C74.1336 65.0862 73.8888 65.2831 73.6328 65.4644L77.8395 69.6868C77.9021 69.6294 78.1421 69.426 78.3611 69.2069C81.5847 65.986 84.7873 62.7468 88.0343 59.5572C90.2173 57.4056 91.2579 54.8627 91.2396 51.7774C91.1875 44.3576 91.2057 36.9403 91.2396 29.5204C91.2396 25.1285 93.9702 21.6702 98.104 20.7261C98.6569 20.5879 99.2541 20.5644 99.9792 20.4731Z" fill="#FFAE0F"/>
<path d="M23.9287 5.7742H14.7537V0H28.9596C29.2778 1.85692 29.6064 3.76601 29.9507 5.77159H70.4953V29.343H33.9827C33.9566 32.7126 36.2804 35.1224 39.5822 35.2085C41.4078 35.2555 43.2334 35.2216 45.046 35.2216H70.4796V41.074H67.6108V46.9108H61.7479V41.1496H44.141V46.8873H38.226C38.226 45.3381 38.1712 43.7577 38.2469 42.1798C38.2886 41.3061 38.0487 40.9984 37.1463 40.808C32.1571 39.7648 28.9518 36.0483 28.0912 30.7018C26.7872 22.5543 25.384 14.4198 24.0226 6.28016C24.02 6.14454 23.9861 6.02196 23.9287 5.7742ZM31.0096 11.7075C31.0304 12.0674 31.0096 12.3282 31.0643 12.5786C31.6251 15.9429 32.2171 19.3021 32.7413 22.6717C32.843 23.3237 33.1142 23.4541 33.688 23.441C35.2528 23.415 36.8177 23.441 38.3825 23.441H40.6515C39.976 19.4116 39.3266 15.5543 38.6824 11.7049L31.0096 11.7075ZM64.6167 11.7231H56.4118C57.0456 15.5178 57.6637 19.2604 58.3131 22.9951C58.3588 23.1018 58.4305 23.1954 58.5216 23.2674C58.6127 23.3393 58.7203 23.3874 58.8347 23.4071C60.7438 23.4384 62.6529 23.428 64.6141 23.428L64.6167 11.7231ZM52.3903 23.4254C51.7513 19.5577 51.1488 15.8777 50.5229 12.2108C50.489 12.0178 50.2334 11.7127 50.0743 11.7101C48.3035 11.6736 46.53 11.6866 44.647 11.6866C45.2912 15.5752 45.9041 19.3151 46.5457 23.0498C46.5876 23.1455 46.6527 23.2293 46.7351 23.2935C46.8175 23.3577 46.9147 23.4003 47.0177 23.4176C48.7625 23.4358 50.5073 23.4254 52.3903 23.4254Z" fill="#3A5F0D"/>
</g>
<defs>
<clipPath id="clip0_107_15">
<rect width="100" height="99.8774" fill="white"/>
</clipPath>
</defs>
</svg>
