<svg width="756" height="756" viewBox="0 0 756 756" fill="none" xmlns="http://www.w3.org/2000/svg">
<path opacity="0.3" d="M755.634 377.817C755.634 586.48 586.48 755.634 377.817 755.634C169.154 755.634 0 586.48 0 377.817C0 169.154 169.154 0 377.817 0C586.48 0 755.634 169.154 755.634 377.817Z" fill="url(#paint0_linear_86_7)"/>
<path opacity="0.3" d="M686.344 374.715C686.344 540.027 552.332 674.039 387.02 674.039C221.708 674.039 87.6956 540.027 87.6956 374.715C87.6956 209.403 221.708 75.3906 387.02 75.3906C552.332 75.3906 686.344 209.403 686.344 374.715Z" fill="url(#paint1_linear_86_7)"/>
<circle opacity="0.5" cx="387.414" cy="379.796" r="227.84" fill="url(#paint2_linear_86_7)"/>
<defs>
<linearGradient id="paint0_linear_86_7" x1="423.384" y1="-671.005" x2="377.817" y2="343.846" gradientUnits="userSpaceOnUse">
<stop stop-color="white"/>
<stop offset="1" stop-color="white" stop-opacity="0"/>
</linearGradient>
<linearGradient id="paint1_linear_86_7" x1="423.12" y1="-456.211" x2="387.02" y2="347.802" gradientUnits="userSpaceOnUse">
<stop stop-color="white"/>
<stop offset="1" stop-color="white" stop-opacity="0"/>
</linearGradient>
<linearGradient id="paint2_linear_86_7" x1="387.414" y1="-124.689" x2="387.414" y2="419.311" gradientUnits="userSpaceOnUse">
<stop stop-color="#3A5F0D"/>
<stop offset="1" stop-color="#5C4205" stop-opacity="0"/>
</linearGradient>
</defs>
</svg>
