<svg width="100" height="117" viewBox="0 0 100 117" fill="none" xmlns="http://www.w3.org/2000/svg">
<g clip-path="url(#clip0_107_21)">
<path d="M60.2856 66.6905C59.9138 71.9671 59.1442 77.0903 57.5984 82.0832C55.9557 87.4668 53.1615 92.4287 49.4097 96.6246C47.453 98.8292 45.268 100.893 44.1657 103.76C44.0646 104.018 43.3635 104.161 42.9395 104.164C34.0692 104.188 25.2 104.194 16.3318 104.181C13.1554 104.181 9.98233 104.181 6.80923 104.181C2.65126 104.164 0.0292969 101.542 0.0292969 97.378C0.0292969 73.3302 0.0292969 49.2814 0.0292969 25.2315C0.0292969 23.053 0.851095 21.429 2.70669 20.2321C12.6184 13.8468 22.5106 7.4332 32.3832 0.991332C34.4475 -0.34574 36.4759 -0.349001 38.5435 0.991332C48.4705 7.42885 58.4007 13.8598 68.3341 20.2843C70.0332 21.3866 70.9626 22.8932 70.8093 25.0456C64.0849 26.35 59.2257 29.9797 57.1321 36.6031C55.0384 43.2265 56.806 49.0183 61.9031 54.1775C59.6953 54.0112 57.8267 54.347 56.3135 55.7298C55.5865 56.3581 55.0184 57.1495 54.6556 58.0394C54.2929 58.9292 54.1458 59.8922 54.2264 60.8498C54.4155 63.9381 56.682 66.1361 60.2856 66.6905ZM33.3126 39.6784C30.2015 40.1512 27.4425 41.1687 24.9771 43.0667C19.4951 47.3225 18.8755 56.1276 26.8197 59.7508C28.6198 60.5693 30.5667 61.0552 32.4223 61.7792C32.7908 61.9194 33.3354 62.3238 33.3387 62.6108C33.3974 67.3264 33.3811 72.0421 33.3811 76.9338C32.4484 76.6827 31.6234 76.5033 30.8309 76.2359C28.4458 75.3984 26.2589 74.0784 24.4064 72.3584C23.4281 71.4975 22.2606 71.5496 21.4714 72.3877C20.6822 73.2259 20.7115 74.4455 21.5594 75.3521C21.8995 75.7018 22.2623 76.0286 22.6454 76.3305C25.6934 78.8867 29.3925 80.5443 33.3289 81.1179C33.6126 82.8006 32.6963 85.3769 35.5237 85.3248C38.1815 85.2726 37.3662 82.7876 37.6402 81.1113C37.9141 81.0689 38.1489 81.0363 38.3804 80.9939C42.0427 80.3417 45.2876 78.8709 47.7204 75.9424C51.6338 71.2268 50.5576 64.8088 45.2811 61.714C43.8918 60.8987 42.346 60.341 40.8393 59.7573C39.7925 59.3497 38.687 59.0855 37.6597 58.779V43.9309C40.9404 44.5624 43.9765 46.1064 46.4192 48.3857C47.4367 49.302 48.6498 49.2629 49.4618 48.3857C50.2739 47.5084 50.225 46.2985 49.2336 45.3528C48.5218 44.6856 47.768 44.0647 46.9768 43.4939C44.2098 41.4722 40.9875 40.1629 37.5945 39.6816C37.3988 37.9402 38.1326 35.4943 35.4584 35.4748C32.7223 35.4552 33.5768 37.95 33.3126 39.6784ZM43.7483 16.6253C43.7475 14.4228 42.8746 12.3102 41.3206 10.7494C39.7665 9.18863 37.6577 8.30666 35.4552 8.29631C33.2533 8.31064 31.1448 9.18792 29.5826 10.7397C28.0204 12.2916 27.1291 14.3942 27.1001 16.5959C27.0984 17.6968 27.3143 18.7872 27.7355 19.8044C28.1567 20.8215 28.7748 21.7453 29.5544 22.5227C30.3339 23.3001 31.2594 23.9157 32.2777 24.3341C33.296 24.7526 34.3869 24.9655 35.4878 24.9608C36.5783 24.9583 37.6577 24.7404 38.6638 24.3197C39.6699 23.899 40.5831 23.2838 41.3509 22.5093C42.1186 21.7349 42.726 20.8164 43.1379 19.8067C43.5499 18.797 43.7584 17.7158 43.7516 16.6253H43.7483Z" fill="#FFAE0F"/>
<path d="M64.5154 66.6743H81.3691C81.5028 67.9983 81.6202 69.3126 81.7637 70.6268C82.6898 78.9917 84.5813 87.0696 89.3817 94.1463C91.1525 96.7552 93.3473 99.0837 95.317 101.562C96.1193 102.576 97.003 103.578 97.5705 104.722C98.6336 106.871 97.6487 108.342 95.2877 108.342C80.4059 108.342 65.5242 108.342 50.6425 108.342C48.239 108.342 47.2802 106.93 48.3303 104.755C48.8848 103.672 49.5897 102.673 50.424 101.787C54.1221 97.7042 57.5496 93.4484 59.7574 88.3251C62.2717 82.4811 63.5599 76.3469 64.1991 70.0626C64.3034 68.9571 64.4111 67.8712 64.5154 66.6743Z" fill="#3A5F0D"/>
<path d="M60.4749 41.6285C60.4715 39.9881 60.7926 38.3633 61.4198 36.8475C62.0471 35.3318 62.968 33.9552 64.1296 32.7969C65.2912 31.6387 66.6705 30.7217 68.188 30.0988C69.7055 29.4759 71.3313 29.1595 72.9717 29.1676C74.612 29.1676 76.2363 29.4914 77.7513 30.1204C79.2663 30.7495 80.6422 31.6714 81.8002 32.8333C82.9581 33.9952 83.8753 35.3742 84.4992 36.8913C85.1231 38.4084 85.4414 40.0338 85.4358 41.6742C85.4254 44.9861 84.1032 48.1589 81.7585 50.4981C79.4139 52.8372 76.2379 54.152 72.926 54.1546C71.2859 54.1499 69.6628 53.8221 68.1494 53.19C66.636 52.558 65.262 51.6339 64.1057 50.4707C62.9495 49.3075 62.0337 47.928 61.4107 46.4108C60.7878 44.8936 60.4698 43.2686 60.4749 41.6285Z" fill="#3A5F0D"/>
<path d="M45.9333 116.57C46.0149 114.326 47.5867 112.657 49.7261 112.523C49.8891 112.523 50.0522 112.523 50.2152 112.523C65.3513 112.523 80.4863 112.523 95.6203 112.523C98.1509 112.523 99.6967 113.955 100 116.58L45.9333 116.57Z" fill="#3A5F0D"/>
<path d="M72.9879 58.3192C76.9698 58.3192 80.9517 58.3192 84.9303 58.3192C86.5608 58.3192 87.5392 59.1182 87.5392 60.4096C87.5392 61.701 86.5608 62.4739 84.9303 62.4739C76.8861 62.4739 68.8419 62.4739 60.7977 62.4739C59.7085 62.4739 58.7465 62.1152 58.5671 61.0227C58.496 60.2549 58.7147 59.4883 59.1802 58.8736C59.5063 58.4724 60.3347 58.3387 60.9445 58.3322C64.9427 58.2963 68.9767 58.3192 72.9879 58.3192Z" fill="#3A5F0D"/>
<path d="M33.3419 43.8887V57.641C30.6482 56.9072 27.9936 56.3006 26.1054 54.1483C24.6477 52.4851 24.664 49.8892 26.0826 47.9195C27.8306 45.4932 30.3678 44.4431 33.3419 43.8887Z" fill="#FFAE0F"/>
<path d="M37.6042 62.9141C39.6392 63.7783 41.5503 64.3816 43.2428 65.3599C46.2137 67.0786 46.7322 70.4995 44.5831 73.1867C42.8188 75.401 40.3893 76.3989 37.6042 76.8848V62.9141Z" fill="#FFAE0F"/>
</g>
<defs>
<clipPath id="clip0_107_21">
<rect width="100" height="116.57" fill="white"/>
</clipPath>
</defs>
</svg>
